<mxfile host="Electron" modified="2024-01-24T07:40:52.710Z" agent="Mozilla/5.0 (Windows NT 10.0; Win64; x64) AppleWebKit/537.36 (KHTML, like Gecko) draw.io/22.1.16 Chrome/120.0.6099.109 Electron/28.1.0 Safari/537.36" etag="725S0J0ZcLXsGNzkUrJ9" version="22.1.16" type="device">
  <diagram name="第 1 页" id="Rl2BzGUqttSHl6W_gCWR">
    <mxGraphModel dx="2152" dy="764" grid="1" gridSize="10" guides="1" tooltips="1" connect="1" arrows="1" fold="1" page="1" pageScale="1" pageWidth="850" pageHeight="1100" math="0" shadow="0">
      <root>
        <mxCell id="0" />
        <mxCell id="1" parent="0" />
        <mxCell id="94bvH0zSQ9h3Q5J1weCJ-29" value="" style="whiteSpace=wrap;html=1;" vertex="1" parent="1">
          <mxGeometry x="-120" y="440" width="800" height="480" as="geometry" />
        </mxCell>
        <mxCell id="94bvH0zSQ9h3Q5J1weCJ-5" value="IdAllocService" style="rounded=1;whiteSpace=wrap;html=1;" vertex="1" parent="1">
          <mxGeometry x="200" y="490" width="120" height="60" as="geometry" />
        </mxCell>
        <mxCell id="94bvH0zSQ9h3Q5J1weCJ-23" style="edgeStyle=orthogonalEdgeStyle;rounded=0;orthogonalLoop=1;jettySize=auto;html=1;entryX=0.5;entryY=1;entryDx=0;entryDy=0;" edge="1" parent="1" source="94bvH0zSQ9h3Q5J1weCJ-6" target="94bvH0zSQ9h3Q5J1weCJ-5">
          <mxGeometry relative="1" as="geometry">
            <Array as="points">
              <mxPoint x="100" y="590" />
              <mxPoint x="260" y="590" />
            </Array>
          </mxGeometry>
        </mxCell>
        <mxCell id="94bvH0zSQ9h3Q5J1weCJ-24" value="申请id段" style="edgeLabel;html=1;align=center;verticalAlign=middle;resizable=0;points=[];" vertex="1" connectable="0" parent="94bvH0zSQ9h3Q5J1weCJ-23">
          <mxGeometry x="-0.1333" y="-2" relative="1" as="geometry">
            <mxPoint as="offset" />
          </mxGeometry>
        </mxCell>
        <mxCell id="94bvH0zSQ9h3Q5J1weCJ-6" value="Thread" style="rounded=1;whiteSpace=wrap;html=1;" vertex="1" parent="1">
          <mxGeometry x="40" y="620" width="120" height="60" as="geometry" />
        </mxCell>
        <mxCell id="94bvH0zSQ9h3Q5J1weCJ-9" value="Thread" style="rounded=1;whiteSpace=wrap;html=1;" vertex="1" parent="1">
          <mxGeometry x="200" y="620" width="120" height="60" as="geometry" />
        </mxCell>
        <mxCell id="94bvH0zSQ9h3Q5J1weCJ-10" value="……" style="rounded=1;whiteSpace=wrap;html=1;" vertex="1" parent="1">
          <mxGeometry x="365" y="620" width="120" height="60" as="geometry" />
        </mxCell>
        <mxCell id="94bvH0zSQ9h3Q5J1weCJ-16" value="Service" style="rounded=1;whiteSpace=wrap;html=1;" vertex="1" parent="1">
          <mxGeometry x="-70" y="760" width="120" height="60" as="geometry" />
        </mxCell>
        <mxCell id="94bvH0zSQ9h3Q5J1weCJ-18" value="IdAllocPool" style="rounded=1;whiteSpace=wrap;html=1;" vertex="1" parent="1">
          <mxGeometry x="90" y="680" width="70" height="30" as="geometry" />
        </mxCell>
        <mxCell id="94bvH0zSQ9h3Q5J1weCJ-31" style="edgeStyle=orthogonalEdgeStyle;rounded=0;orthogonalLoop=1;jettySize=auto;html=1;entryX=0.5;entryY=1;entryDx=0;entryDy=0;exitX=0.5;exitY=0;exitDx=0;exitDy=0;" edge="1" parent="1" source="94bvH0zSQ9h3Q5J1weCJ-20" target="94bvH0zSQ9h3Q5J1weCJ-18">
          <mxGeometry relative="1" as="geometry">
            <Array as="points">
              <mxPoint x="260" y="730" />
              <mxPoint x="125" y="730" />
            </Array>
          </mxGeometry>
        </mxCell>
        <mxCell id="94bvH0zSQ9h3Q5J1weCJ-32" value="申请id" style="edgeLabel;html=1;align=center;verticalAlign=middle;resizable=0;points=[];" vertex="1" connectable="0" parent="94bvH0zSQ9h3Q5J1weCJ-31">
          <mxGeometry x="-0.0767" y="1" relative="1" as="geometry">
            <mxPoint as="offset" />
          </mxGeometry>
        </mxCell>
        <mxCell id="94bvH0zSQ9h3Q5J1weCJ-20" value="Service" style="rounded=1;whiteSpace=wrap;html=1;" vertex="1" parent="1">
          <mxGeometry x="200" y="760" width="120" height="60" as="geometry" />
        </mxCell>
        <mxCell id="94bvH0zSQ9h3Q5J1weCJ-21" style="edgeStyle=orthogonalEdgeStyle;rounded=0;orthogonalLoop=1;jettySize=auto;html=1;entryX=0.5;entryY=1;entryDx=0;entryDy=0;" edge="1" parent="1" source="94bvH0zSQ9h3Q5J1weCJ-16" target="94bvH0zSQ9h3Q5J1weCJ-18">
          <mxGeometry relative="1" as="geometry">
            <Array as="points">
              <mxPoint x="-10" y="730" />
              <mxPoint x="125" y="730" />
            </Array>
          </mxGeometry>
        </mxCell>
        <mxCell id="94bvH0zSQ9h3Q5J1weCJ-22" value="申请id" style="edgeLabel;html=1;align=center;verticalAlign=middle;resizable=0;points=[];" vertex="1" connectable="0" parent="94bvH0zSQ9h3Q5J1weCJ-21">
          <mxGeometry x="-0.2603" y="2" relative="1" as="geometry">
            <mxPoint as="offset" />
          </mxGeometry>
        </mxCell>
        <mxCell id="94bvH0zSQ9h3Q5J1weCJ-26" style="edgeStyle=orthogonalEdgeStyle;rounded=0;orthogonalLoop=1;jettySize=auto;html=1;entryX=0.5;entryY=1;entryDx=0;entryDy=0;" edge="1" parent="1" source="94bvH0zSQ9h3Q5J1weCJ-5" target="94bvH0zSQ9h3Q5J1weCJ-28">
          <mxGeometry relative="1" as="geometry">
            <mxPoint x="262" y="432" as="targetPoint" />
          </mxGeometry>
        </mxCell>
        <mxCell id="94bvH0zSQ9h3Q5J1weCJ-27" value="更新该节点对应行" style="edgeLabel;html=1;align=center;verticalAlign=middle;resizable=0;points=[];" vertex="1" connectable="0" parent="94bvH0zSQ9h3Q5J1weCJ-26">
          <mxGeometry x="-0.1726" relative="1" as="geometry">
            <mxPoint as="offset" />
          </mxGeometry>
        </mxCell>
        <mxCell id="94bvH0zSQ9h3Q5J1weCJ-28" value="DB" style="shape=datastore;whiteSpace=wrap;html=1;" vertex="1" parent="1">
          <mxGeometry x="230" y="240" width="60" height="60" as="geometry" />
        </mxCell>
        <mxCell id="94bvH0zSQ9h3Q5J1weCJ-30" value="Node" style="shape=note;whiteSpace=wrap;html=1;backgroundOutline=1;darkOpacity=0.05;fillColor=#fff2cc;strokeColor=#d6b656;" vertex="1" parent="1">
          <mxGeometry x="-100" y="450" width="120" height="50" as="geometry" />
        </mxCell>
      </root>
    </mxGraphModel>
  </diagram>
</mxfile>
